<svg xmlns="http://www.w3.org/2000/svg" viewBox="0 0 120 180" width="120" height="180" fill="none">
  <!-- Gehäuse -->
  <rect x="10" y="10" width="100" height="160" rx="15" ry="15" fill="#444" stroke="#222" stroke-width="3"></rect>
  <!-- Display -->
  <rect x="20" y="20" width="80" height="30" rx="5" ry="5" fill="#222" stroke="#000" stroke-width="2"></rect>
  <!-- Display-Inhalt (simuliert) -->
  <text x="25" y="43" fill="#0f0" font-family="monospace" font-size="18">123456</text>
  
  <!-- Tasten -->
  <!-- Reihe 1 -->
  <rect x="20" y="60" width="20" height="20" rx="3" ry="3" fill="#666" stroke="#333" stroke-width="1"></rect>
  <rect x="45" y="60" width="20" height="20" rx="3" ry="3" fill="#666" stroke="#333" stroke-width="1"></rect>
  <rect x="70" y="60" width="20" height="20" rx="3" ry="3" fill="#666" stroke="#333" stroke-width="1"></rect>
  <rect x="95" y="60" width="15" height="20" rx="3" ry="3" fill="#a33" stroke="#800" stroke-width="1"></rect>
  
  <!-- Reihe 2 -->
  <rect x="20" y="85" width="20" height="20" rx="3" ry="3" fill="#666" stroke="#333" stroke-width="1"></rect>
  <rect x="45" y="85" width="20" height="20" rx="3" ry="3" fill="#666" stroke="#333" stroke-width="1"></rect>
  <rect x="70" y="85" width="20" height="20" rx="3" ry="3" fill="#666" stroke="#333" stroke-width="1"></rect>
  <rect x="95" y="85" width="15" height="20" rx="3" ry="3" fill="#a33" stroke="#800" stroke-width="1"></rect>
  
  <!-- Reihe 3 -->
  <rect x="20" y="110" width="20" height="20" rx="3" ry="3" fill="#666" stroke="#333" stroke-width="1"></rect>
  <rect x="45" y="110" width="20" height="20" rx="3" ry="3" fill="#666" stroke="#333" stroke-width="1"></rect>
  <rect x="70" y="110" width="20" height="20" rx="3" ry="3" fill="#666" stroke="#333" stroke-width="1"></rect>
  <rect x="95" y="110" width="15" height="45" rx="3" ry="3" fill="#a33" stroke="#800" stroke-width="1"></rect>
  
  <!-- Reihe 4 -->
  <rect x="20" y="135" width="45" height="20" rx="3" ry="3" fill="#666" stroke="#333" stroke-width="1"></rect>
  <rect x="70" y="135" width="20" height="20" rx="3" ry="3" fill="#666" stroke="#333" stroke-width="1"></rect>
</svg>
